<svg xmlns="http://www.w3.org/2000/svg" xmlns:xlink="http://www.w3.org/1999/xlink" width="3780" zoomAndPan="magnify" viewBox="0 0 2835 2834.999876" height="3780" preserveAspectRatio="xMidYMid meet" version="1.0"><defs><clipPath id="5dd76b8e65"><path d="M 0.554688 0.554688 L 2510.445312 0.554688 L 2510.445312 2510.445312 L 0.554688 2510.445312 Z M 0.554688 0.554688 " clip-rule="nonzero"/></clipPath><clipPath id="60d5a73a41"><path d="M 1255.5 0.554688 C 562.410156 0.554688 0.554688 562.410156 0.554688 1255.5 C 0.554688 1948.589844 562.410156 2510.445312 1255.5 2510.445312 C 1948.589844 2510.445312 2510.445312 1948.589844 2510.445312 1255.5 C 2510.445312 562.410156 1948.589844 0.554688 1255.5 0.554688 Z M 1255.5 0.554688 " clip-rule="nonzero"/></clipPath><clipPath id="3adcf7b7a5"><path d="M 0.554688 0.554688 L 2510.445312 0.554688 L 2510.445312 2510.445312 L 0.554688 2510.445312 Z M 0.554688 0.554688 " clip-rule="nonzero"/></clipPath><clipPath id="7c77f583c3"><path d="M 1255.5 0.554688 C 562.410156 0.554688 0.554688 562.410156 0.554688 1255.5 C 0.554688 1948.589844 562.410156 2510.445312 1255.5 2510.445312 C 1948.589844 2510.445312 2510.445312 1948.589844 2510.445312 1255.5 C 2510.445312 562.410156 1948.589844 0.554688 1255.5 0.554688 Z M 1255.5 0.554688 " clip-rule="nonzero"/></clipPath><clipPath id="3b2f0f5f36"><rect x="0" width="2511" y="0" height="2511"/></clipPath><clipPath id="ad529ecc63"><path d="M 31 0.078125 L 1778 0.078125 L 1778 1682 L 31 1682 Z M 31 0.078125 " clip-rule="nonzero"/></clipPath><clipPath id="7394b5c911"><path d="M 481.25 833.617188 L 1331.75 833.617188 L 1331.75 1684.117188 L 481.25 1684.117188 Z M 481.25 833.617188 " clip-rule="nonzero"/></clipPath><clipPath id="254aeb16a1"><path d="M 0.25 0.617188 L 850.75 0.617188 L 850.75 851.117188 L 0.25 851.117188 Z M 0.25 0.617188 " clip-rule="nonzero"/></clipPath><clipPath id="33477ff429"><rect x="0" width="851" y="0" height="852"/></clipPath><clipPath id="fb2d7dc852"><rect x="0" width="1782" y="0" height="1688"/></clipPath><clipPath id="b079831d29"><path d="M 911.042969 1166.734375 L 1790.902344 1166.734375 L 1790.902344 2046.59375 L 911.042969 2046.59375 Z M 911.042969 1166.734375 " clip-rule="nonzero"/></clipPath><clipPath id="34a96adcd8"><path d="M 669.761719 956.429688 L 1043.308594 956.429688 L 1043.308594 1255 L 669.761719 1255 Z M 669.761719 956.429688 " clip-rule="nonzero"/></clipPath><clipPath id="fd75e20408"><path d="M 1.042969 0.429688 L 374.308594 0.429688 L 374.308594 298.960938 L 1.042969 298.960938 Z M 1.042969 0.429688 " clip-rule="nonzero"/></clipPath><clipPath id="daa59e75ca"><rect x="0" width="375" y="0" height="299"/></clipPath><clipPath id="50a3479bae"><rect x="0" width="2511" y="0" height="2511"/></clipPath></defs><g transform="matrix(1, 0, 0, 1, 162, 162)"><g clip-path="url(#50a3479bae)"><g clip-path="url(#5dd76b8e65)"><g clip-path="url(#60d5a73a41)"><g><g clip-path="url(#3b2f0f5f36)"><g clip-path="url(#3adcf7b7a5)"><g clip-path="url(#7c77f583c3)"><path fill="#029b24" d="M 0.554688 0.554688 L 2510.445312 0.554688 L 2510.445312 2510.445312 L 0.554688 2510.445312 Z M 0.554688 0.554688 " fill-opacity="1" fill-rule="nonzero"/></g></g></g></g></g></g><g transform="matrix(1, 0, 0, 1, 349, 418)"><g clip-path="url(#fb2d7dc852)"><g clip-path="url(#ad529ecc63)"><path fill="#ffffff" d="M 1684.023438 876.191406 L 1612.484375 876.191406 L 1612.484375 1609.765625 C 1612.410156 1611 1612.300781 1612.230469 1612.164062 1613.457031 C 1612.03125 1614.683594 1611.863281 1615.910156 1611.667969 1617.128906 C 1611.46875 1618.347656 1611.246094 1619.5625 1610.988281 1620.769531 C 1610.734375 1621.980469 1610.449219 1623.179688 1610.136719 1624.375 C 1609.820312 1625.570312 1609.480469 1626.757812 1609.105469 1627.933594 C 1608.734375 1629.113281 1608.335938 1630.28125 1607.90625 1631.4375 C 1607.476562 1632.597656 1607.023438 1633.746094 1606.535156 1634.882812 C 1606.050781 1636.015625 1605.539062 1637.140625 1605 1638.253906 C 1604.460938 1639.363281 1603.894531 1640.460938 1603.304688 1641.542969 C 1602.710938 1642.628906 1602.089844 1643.695312 1601.445312 1644.75 C 1600.800781 1645.804688 1600.132812 1646.839844 1599.4375 1647.863281 C 1598.742188 1648.882812 1598.019531 1649.886719 1597.277344 1650.871094 C 1596.53125 1651.859375 1595.765625 1652.824219 1594.972656 1653.773438 C 1594.179688 1654.722656 1593.367188 1655.648438 1592.53125 1656.558594 C 1591.695312 1657.46875 1590.835938 1658.355469 1589.957031 1659.222656 C 1589.074219 1660.089844 1588.175781 1660.933594 1587.253906 1661.757812 C 1586.332031 1662.578125 1585.390625 1663.378906 1584.433594 1664.15625 C 1583.472656 1664.933594 1582.492188 1665.6875 1581.496094 1666.417969 C 1580.5 1667.144531 1579.484375 1667.851562 1578.453125 1668.53125 C 1577.421875 1669.210938 1576.375 1669.867188 1575.3125 1670.496094 C 1574.25 1671.125 1573.171875 1671.726562 1572.078125 1672.300781 C 1570.988281 1672.878906 1569.882812 1673.429688 1568.761719 1673.949219 C 1567.644531 1674.472656 1566.511719 1674.96875 1565.367188 1675.4375 C 1564.226562 1675.902344 1563.070312 1676.34375 1561.90625 1676.753906 C 1560.742188 1677.164062 1559.566406 1677.546875 1558.382812 1677.902344 C 1557.199219 1678.253906 1556.007812 1678.582031 1554.808594 1678.875 C 1553.609375 1679.171875 1552.40625 1679.4375 1551.191406 1679.675781 C 1549.980469 1679.914062 1548.761719 1680.121094 1547.542969 1680.296875 C 1546.320312 1680.476562 1545.09375 1680.625 1543.863281 1680.742188 C 1542.632812 1680.859375 1541.402344 1680.949219 1540.167969 1681.007812 C 1538.933594 1681.066406 1537.699219 1681.09375 1536.464844 1681.089844 C 1535.230469 1681.089844 1533.996094 1681.054688 1532.761719 1680.996094 L 1110.148438 1680.996094 L 1110.148438 1180.8125 C 1110.148438 1179.101562 1110.0625 1177.394531 1109.894531 1175.691406 C 1109.730469 1173.988281 1109.476562 1172.296875 1109.144531 1170.621094 C 1108.8125 1168.941406 1108.394531 1167.285156 1107.898438 1165.644531 C 1107.402344 1164.007812 1106.828125 1162.398438 1106.171875 1160.820312 C 1105.519531 1159.238281 1104.789062 1157.691406 1103.980469 1156.183594 C 1103.175781 1154.675781 1102.296875 1153.207031 1101.347656 1151.785156 C 1100.394531 1150.363281 1099.378906 1148.988281 1098.292969 1147.667969 C 1097.207031 1146.34375 1096.0625 1145.078125 1094.851562 1143.867188 C 1093.640625 1142.65625 1092.375 1141.507812 1091.054688 1140.421875 C 1089.730469 1139.335938 1088.359375 1138.316406 1086.9375 1137.367188 C 1085.515625 1136.414062 1084.046875 1135.535156 1082.539062 1134.730469 C 1081.03125 1133.921875 1079.488281 1133.191406 1077.90625 1132.535156 C 1076.324219 1131.878906 1074.714844 1131.304688 1073.078125 1130.804688 C 1071.441406 1130.308594 1069.785156 1129.890625 1068.105469 1129.558594 C 1066.429688 1129.222656 1064.738281 1128.972656 1063.035156 1128.800781 C 1061.332031 1128.632812 1059.625 1128.546875 1057.914062 1128.546875 L 751.296875 1128.546875 C 749.582031 1128.546875 747.875 1128.632812 746.171875 1128.800781 C 744.46875 1128.96875 742.78125 1129.21875 741.101562 1129.550781 C 739.421875 1129.886719 737.765625 1130.300781 736.125 1130.796875 C 734.488281 1131.296875 732.878906 1131.871094 731.300781 1132.527344 C 729.71875 1133.183594 728.171875 1133.914062 726.664062 1134.71875 C 725.15625 1135.527344 723.6875 1136.40625 722.265625 1137.355469 C 720.84375 1138.308594 719.46875 1139.328125 718.148438 1140.414062 C 716.824219 1141.5 715.558594 1142.648438 714.347656 1143.859375 C 713.140625 1145.066406 711.992188 1146.335938 710.90625 1147.65625 C 709.820312 1148.980469 708.804688 1150.355469 707.855469 1151.777344 C 706.902344 1153.199219 706.027344 1154.667969 705.21875 1156.175781 C 704.414062 1157.6875 703.683594 1159.230469 703.027344 1160.8125 C 702.375 1162.394531 701.800781 1164.003906 701.304688 1165.644531 C 700.808594 1167.28125 700.394531 1168.9375 700.058594 1170.617188 C 699.726562 1172.296875 699.476562 1173.988281 699.308594 1175.691406 C 699.144531 1177.394531 699.0625 1179.101562 699.0625 1180.8125 L 699.0625 1680.964844 L 276.417969 1680.964844 C 275.1875 1681.027344 273.957031 1681.0625 272.726562 1681.070312 C 271.496094 1681.074219 270.265625 1681.050781 269.035156 1680.992188 C 267.804688 1680.9375 266.574219 1680.855469 265.351562 1680.738281 C 264.125 1680.625 262.902344 1680.480469 261.683594 1680.304688 C 260.464844 1680.128906 259.25 1679.925781 258.042969 1679.691406 C 256.832031 1679.457031 255.632812 1679.191406 254.433594 1678.898438 C 253.238281 1678.605469 252.050781 1678.285156 250.871094 1677.933594 C 249.691406 1677.582031 248.519531 1677.203125 247.359375 1676.792969 C 246.195312 1676.386719 245.046875 1675.949219 243.90625 1675.484375 C 242.765625 1675.019531 241.636719 1674.527344 240.519531 1674.007812 C 239.40625 1673.488281 238.300781 1672.941406 237.214844 1672.367188 C 236.125 1671.792969 235.050781 1671.195312 233.988281 1670.566406 C 232.929688 1669.941406 231.882812 1669.289062 230.855469 1668.613281 C 229.828125 1667.9375 228.816406 1667.234375 227.824219 1666.507812 C 226.828125 1665.78125 225.855469 1665.03125 224.898438 1664.253906 C 223.941406 1663.480469 223 1662.683594 222.082031 1661.863281 C 221.164062 1661.042969 220.269531 1660.199219 219.390625 1659.335938 C 218.515625 1658.472656 217.660156 1657.585938 216.824219 1656.679688 C 215.992188 1655.773438 215.179688 1654.847656 214.390625 1653.902344 C 213.601562 1652.957031 212.839844 1651.992188 212.097656 1651.011719 C 211.355469 1650.027344 210.640625 1649.027344 209.945312 1648.007812 C 209.253906 1646.992188 208.585938 1645.957031 207.945312 1644.90625 C 207.304688 1643.855469 206.6875 1642.789062 206.097656 1641.707031 C 205.507812 1640.625 204.945312 1639.53125 204.410156 1638.425781 C 203.875 1637.316406 203.363281 1636.195312 202.882812 1635.0625 C 202.402344 1633.929688 201.949219 1632.785156 201.523438 1631.628906 C 201.097656 1630.472656 200.699219 1629.308594 200.332031 1628.132812 C 199.964844 1626.957031 199.625 1625.773438 199.3125 1624.582031 C 199.003906 1623.390625 198.722656 1622.195312 198.46875 1620.988281 C 198.21875 1619.785156 197.996094 1618.574219 197.804688 1617.355469 C 197.609375 1616.140625 197.449219 1614.921875 197.3125 1613.695312 C 197.179688 1612.472656 197.078125 1611.246094 197.003906 1610.015625 L 197.003906 876.191406 L 125.152344 876.191406 C 45.523438 876.191406 2.378906 801.214844 54.550781 753.105469 L 840.859375 26.183594 C 842.085938 25.144531 843.335938 24.136719 844.605469 23.152344 C 845.878906 22.167969 847.171875 21.214844 848.484375 20.285156 C 849.796875 19.359375 851.128906 18.460938 852.484375 17.59375 C 853.835938 16.726562 855.207031 15.890625 856.597656 15.082031 C 857.988281 14.273438 859.394531 13.496094 860.816406 12.75 C 862.242188 12.007812 863.679688 11.292969 865.136719 10.609375 C 866.589844 9.925781 868.0625 9.277344 869.546875 8.660156 C 871.03125 8.042969 872.527344 7.457031 874.035156 6.90625 C 875.546875 6.355469 877.066406 5.835938 878.597656 5.351562 C 880.132812 4.867188 881.675781 4.417969 883.226562 4 C 884.777344 3.585938 886.339844 3.203125 887.910156 2.855469 C 889.480469 2.507812 891.054688 2.191406 892.636719 1.914062 C 894.21875 1.636719 895.808594 1.394531 897.402344 1.183594 C 898.996094 0.976562 900.59375 0.800781 902.195312 0.664062 C 903.796875 0.527344 905.402344 0.421875 907.007812 0.355469 C 908.613281 0.289062 910.21875 0.253906 911.828125 0.257812 C 913.433594 0.261719 915.039062 0.300781 916.644531 0.375 C 918.25 0.449219 919.855469 0.558594 921.457031 0.703125 C 923.054688 0.847656 924.652344 1.027344 926.246094 1.242188 C 927.839844 1.457031 929.425781 1.707031 931.007812 1.992188 C 932.589844 2.277344 934.164062 2.59375 935.734375 2.949219 C 937.300781 3.304688 938.859375 3.691406 940.410156 4.113281 C 941.960938 4.535156 943.5 4.992188 945.03125 5.484375 C 946.5625 5.976562 948.082031 6.5 949.589844 7.058594 C 951.097656 7.613281 952.589844 8.203125 954.074219 8.828125 C 955.554688 9.453125 957.023438 10.105469 958.472656 10.792969 C 959.925781 11.484375 961.363281 12.203125 962.785156 12.953125 C 964.207031 13.703125 965.609375 14.488281 966.996094 15.300781 C 968.382812 16.113281 969.75 16.957031 971.101562 17.828125 C 972.449219 18.703125 973.777344 19.605469 975.089844 20.539062 C 976.398438 21.46875 977.6875 22.429688 978.953125 23.417969 C 980.222656 24.40625 981.464844 25.421875 982.6875 26.464844 C 1240.105469 268.761719 1497.636719 511.058594 1755.285156 753.355469 C 1806.484375 801.933594 1763.375 876.191406 1684.023438 876.191406 Z M 1684.023438 876.191406 " fill-opacity="1" fill-rule="nonzero"/></g><g clip-path="url(#7394b5c911)"><g transform="matrix(1, 0, 0, 1, 481, 833)"><g clip-path="url(#33477ff429)"><g clip-path="url(#254aeb16a1)"><path fill="#ffffff" d="M 0.25 0.617188 L 850.75 0.617188 L 850.75 851.117188 L 0.25 851.117188 Z M 0.25 0.617188 " fill-opacity="1" fill-rule="nonzero"/></g></g></g></g></g></g><g clip-path="url(#b079831d29)"><path fill="#029b24" d="M 1351.042969 1166.734375 C 1108.035156 1166.734375 911.042969 1363.726562 911.042969 1606.734375 C 911.042969 1849.738281 1108.035156 2046.734375 1351.042969 2046.734375 C 1594.050781 2046.734375 1791.042969 1849.738281 1791.042969 1606.734375 C 1791.042969 1363.726562 1594.050781 1166.734375 1351.042969 1166.734375 Z M 1522.425781 1520.449219 C 1524.90625 1523.289062 1528.597656 1524.59375 1533.585938 1524.289062 C 1545.792969 1523.570312 1555.097656 1519.75 1560.496094 1513.253906 C 1562.730469 1510.558594 1564.234375 1507.464844 1564.960938 1504.085938 C 1567.492188 1510.09375 1570.148438 1513.5 1574.949219 1513.5 C 1576.5625 1513.5 1580.675781 1513.5 1588.59375 1504.855469 C 1592.179688 1513.8125 1598.550781 1523.746094 1609.238281 1524.320312 C 1617.496094 1524.777344 1627.488281 1524.675781 1634.074219 1524.53125 L 1634.074219 1543.316406 C 1615.785156 1545.085938 1595.695312 1545.585938 1591.222656 1543.355469 C 1578.050781 1536.773438 1563.683594 1545.480469 1563.65625 1545.53125 C 1557.152344 1548.730469 1541.414062 1554.457031 1534.371094 1551.691406 C 1533.070312 1551.183594 1532.335938 1550.46875 1531.855469 1549.214844 C 1530.519531 1545.769531 1529.398438 1542.351562 1528.335938 1539.121094 C 1524.621094 1527.84375 1520.113281 1514.117188 1507.476562 1514.117188 C 1505.890625 1514.117188 1504.179688 1514.332031 1502.328125 1514.796875 C 1498.875 1515.660156 1492.15625 1516.351562 1485.042969 1517.082031 C 1479.742188 1517.628906 1474.730469 1518.175781 1470.066406 1518.785156 C 1472.363281 1517.363281 1474.746094 1515.597656 1477.203125 1513.414062 C 1493.15625 1499.242188 1509.886719 1489.742188 1517.632812 1490.246094 C 1519.207031 1490.351562 1519.824219 1490.84375 1520.226562 1491.308594 C 1522.546875 1494.019531 1521.898438 1498.449219 1520.722656 1504.410156 C 1519.660156 1509.796875 1518.460938 1515.90625 1522.425781 1520.449219 Z M 1525.003906 1395.808594 C 1529.839844 1396.160156 1534.472656 1395.441406 1538.445312 1392.660156 C 1543.71875 1388.976562 1546.5625 1382.652344 1547.148438 1373.339844 C 1548.335938 1354.503906 1550.96875 1343.679688 1552.929688 1338.179688 C 1554.433594 1343.738281 1555.957031 1352.277344 1556.800781 1360.542969 C 1557.171875 1364.117188 1560.011719 1366.976562 1563.558594 1366.710938 C 1563.5625 1366.710938 1564.105469 1366.757812 1564.355469 1367.0625 C 1564.792969 1367.59375 1565.175781 1369.222656 1564.824219 1372.054688 C 1563.28125 1384.46875 1552.808594 1407.390625 1541.945312 1407.390625 C 1537.058594 1407.390625 1532.574219 1403.046875 1528.234375 1398.847656 C 1527.175781 1397.816406 1526.105469 1396.785156 1525.003906 1395.808594 Z M 1324.886719 1195.148438 C 1327.542969 1194.980469 1330.1875 1194.8125 1332.855469 1194.695312 C 1326.886719 1198.234375 1321.238281 1201.851562 1316.191406 1205.472656 C 1319.789062 1201.515625 1322.644531 1198.144531 1324.886719 1195.148438 Z M 1762.027344 1572.742188 C 1762.382812 1577.050781 1762.789062 1581.351562 1763.007812 1585.699219 C 1762.21875 1585.292969 1761.375 1584.90625 1760.414062 1584.566406 C 1756.742188 1583.265625 1751.902344 1581.878906 1746.679688 1580.390625 C 1739.65625 1578.394531 1726.636719 1574.683594 1720.25 1571.355469 C 1728.410156 1570.175781 1745.410156 1570.65625 1762.027344 1572.742188 Z M 1691.429688 1646.074219 C 1728.328125 1640.804688 1749.503906 1633.210938 1754.363281 1623.492188 C 1755.460938 1621.304688 1757.984375 1618.277344 1760.421875 1615.347656 C 1761.433594 1614.132812 1762.433594 1612.90625 1763.414062 1611.675781 C 1760.75 1836.847656 1576.835938 2019.234375 1351.042969 2019.234375 C 1129.570312 2019.234375 948.371094 1843.773438 938.992188 1624.570312 C 944.6875 1625.882812 951.042969 1625.367188 957.628906 1624.820312 C 967.566406 1623.992188 978.8125 1623.066406 992.140625 1627.007812 C 1017.757812 1634.59375 1018.550781 1638.25 1020.457031 1647.089844 C 1021.660156 1652.675781 1023.3125 1660.324219 1029.515625 1670.242188 C 1035.007812 1679.027344 1043.132812 1684.558594 1053 1686.242188 C 1055.304688 1686.636719 1057.621094 1686.808594 1059.941406 1686.808594 C 1077.835938 1686.808594 1095.390625 1676.207031 1100.695312 1671.96875 C 1105.308594 1668.28125 1105.046875 1664.34375 1104.480469 1662.324219 C 1102.703125 1655.949219 1095.699219 1655.035156 1085.101562 1653.65625 C 1081.339844 1653.167969 1076.960938 1652.597656 1073.417969 1651.699219 C 1076.546875 1648.753906 1080.179688 1644.824219 1080.179688 1639.269531 C 1080.179688 1631.800781 1074.726562 1628.277344 1070.347656 1625.449219 C 1066.757812 1623.125 1062.679688 1620.488281 1059.320312 1615.125 C 1056.875 1611.203125 1057.304688 1610.316406 1059.125 1606.566406 C 1061.023438 1602.652344 1063.898438 1596.734375 1061.863281 1587.589844 C 1060.714844 1582.4375 1057.523438 1580.4375 1055.726562 1579.707031 C 1049.9375 1577.347656 1044.285156 1581.011719 1037.757812 1585.269531 C 1033.113281 1588.296875 1026.089844 1592.824219 1022.707031 1591.8125 C 1020.808594 1591.222656 1019.324219 1588.210938 1018.605469 1586.464844 C 1016.472656 1581.292969 1017.71875 1578.460938 1018.839844 1576.78125 C 1025.371094 1567.023438 1051.085938 1562.976562 1063.398438 1562.976562 C 1065.964844 1562.976562 1071.550781 1567.625 1075.625 1571.019531 C 1083.925781 1577.925781 1094.242188 1586.519531 1105.414062 1582.324219 C 1114.171875 1579.046875 1120.582031 1565.496094 1132.082031 1539.828125 C 1140.785156 1520.421875 1150.640625 1498.425781 1160.675781 1488.394531 C 1173.414062 1475.660156 1186.550781 1476.554688 1199.269531 1477.4375 C 1205.425781 1477.855469 1211.253906 1478.261719 1216.710938 1477.046875 C 1221.316406 1476.023438 1226.945312 1474.191406 1229.582031 1469.046875 C 1232.722656 1462.945312 1230.011719 1456.585938 1225.917969 1446.960938 C 1225.203125 1445.292969 1224.433594 1443.484375 1223.625 1441.527344 C 1226.613281 1441.90625 1230 1441.746094 1233.691406 1440.644531 C 1234.242188 1440.480469 1234.558594 1440.449219 1234.597656 1440.414062 C 1235.585938 1441.242188 1237.082031 1445.109375 1237.980469 1447.445312 C 1241.265625 1455.941406 1246.648438 1470.214844 1265.179688 1468.953125 C 1272.296875 1468.476562 1277.4375 1466.023438 1280.460938 1461.664062 C 1286.019531 1453.628906 1282.667969 1442.523438 1278.425781 1428.464844 C 1275.707031 1419.453125 1272.617188 1409.234375 1271.5625 1398.671875 C 1270.296875 1386.007812 1266.402344 1377.886719 1259.652344 1373.847656 C 1250.683594 1368.480469 1240.632812 1372.652344 1234.617188 1375.136719 C 1234.597656 1375.144531 1234.578125 1375.15625 1234.558594 1375.164062 C 1233.523438 1372.972656 1232.261719 1369.59375 1231.265625 1366.910156 C 1227.6875 1357.300781 1223.640625 1346.402344 1216.066406 1340.671875 C 1213.292969 1338.570312 1210.003906 1337.789062 1206.789062 1338.46875 C 1199.398438 1340.046875 1194.714844 1348.5625 1189.292969 1358.417969 C 1186.472656 1363.539062 1180.613281 1374.203125 1177.792969 1374.761719 C 1164.371094 1370.285156 1156.394531 1382.726562 1152.3125 1389.71875 C 1150.257812 1387.027344 1148.734375 1383.554688 1147.808594 1372.339844 C 1147.167969 1364.613281 1174.609375 1346.582031 1189.351562 1336.894531 C 1205.566406 1326.234375 1219.566406 1317.03125 1224.414062 1308.957031 C 1226.378906 1305.675781 1230.046875 1299.574219 1225.929688 1294.699219 C 1221.863281 1289.902344 1216.214844 1292.132812 1209.660156 1294.695312 C 1204.929688 1296.550781 1197.980469 1299.269531 1192.902344 1298.808594 C 1193.722656 1296.117188 1196.496094 1291.65625 1197.523438 1290.003906 C 1199.410156 1286.972656 1202.566406 1281.894531 1198.027344 1277.828125 C 1193.476562 1273.738281 1188.574219 1277.558594 1186.222656 1279.394531 C 1175.152344 1288.089844 1146.980469 1298.542969 1137.65625 1298.542969 C 1135.984375 1298.542969 1134.910156 1298.5 1134.230469 1298.4375 C 1133.921875 1296.746094 1133.699219 1293.550781 1133.488281 1290.441406 C 1133.339844 1288.390625 1133.175781 1286.058594 1132.957031 1283.402344 C 1132.464844 1277.511719 1129.78125 1272.492188 1125.1875 1268.898438 C 1123.457031 1267.539062 1121.503906 1266.464844 1119.441406 1265.582031 C 1132.910156 1256.40625 1146.988281 1248.085938 1161.53125 1240.527344 C 1166.699219 1245.613281 1179.796875 1253.175781 1217.101562 1261.023438 C 1227.160156 1263.136719 1234.035156 1266.3125 1239.558594 1268.863281 C 1244.613281 1271.199219 1249.078125 1272.96875 1253.261719 1272.96875 C 1259.457031 1272.96875 1265.011719 1269.078125 1270.871094 1257.371094 C 1274.496094 1250.121094 1284.46875 1239.027344 1294.828125 1228.0625 C 1294.089844 1230.238281 1293.859375 1232.34375 1294.304688 1234.34375 C 1296.265625 1243.15625 1300.199219 1250.878906 1303.355469 1257.082031 C 1304.582031 1259.488281 1306.140625 1262.558594 1306.898438 1264.558594 C 1306.066406 1265.125 1305.003906 1265.785156 1304.132812 1266.328125 C 1298.433594 1269.890625 1290.617188 1274.769531 1289.214844 1283.613281 C 1288.300781 1289.375 1290.464844 1295.425781 1295.648438 1301.59375 C 1304.601562 1312.261719 1302.164062 1320.007812 1299.085938 1329.808594 C 1297.464844 1334.953125 1295.792969 1340.265625 1295.792969 1346.15625 C 1295.792969 1349.03125 1295.363281 1353.710938 1294.910156 1358.664062 C 1292.738281 1382.285156 1291.945312 1399.492188 1301.566406 1405.875 C 1303.234375 1406.980469 1305.550781 1407.953125 1308.539062 1407.953125 C 1311.035156 1407.953125 1314.007812 1407.269531 1317.464844 1405.421875 C 1328.644531 1399.4375 1331.976562 1393.148438 1335.828125 1385.859375 C 1340.582031 1376.871094 1347.09375 1364.558594 1373.179688 1342.042969 C 1419.511719 1302.027344 1454.71875 1226.6875 1456.328125 1207.902344 C 1521.425781 1225.101562 1580.289062 1257.816406 1628.640625 1301.890625 C 1622.902344 1312.027344 1615.3125 1321.199219 1609.179688 1320.089844 C 1606.921875 1319.683594 1606.835938 1319.664062 1606.550781 1313.640625 C 1606.148438 1304.847656 1605.464844 1290.128906 1581.214844 1285.367188 C 1546.625 1278.566406 1497.5 1294.234375 1486.011719 1324.628906 C 1478.089844 1345.582031 1477.308594 1366.085938 1483.984375 1378.132812 C 1487.441406 1384.367188 1492.753906 1388.355469 1499.34375 1389.671875 C 1502.125 1390.230469 1505.132812 1391.109375 1508.316406 1392.054688 C 1506.363281 1393.207031 1504.621094 1395.003906 1503.113281 1397.425781 C 1489.214844 1419.664062 1472.664062 1437.003906 1467.691406 1437.078125 C 1459.042969 1437.078125 1452.140625 1444.742188 1449.21875 1457.582031 C 1448.058594 1462.6875 1447.339844 1468.722656 1448.851562 1473.125 C 1448.769531 1473.203125 1448.695312 1473.289062 1448.617188 1473.375 C 1443.316406 1470.671875 1434.945312 1467.535156 1428.199219 1470.15625 C 1423.976562 1471.792969 1420.980469 1475.363281 1419.773438 1480.214844 C 1416.757812 1492.253906 1419.519531 1508.734375 1425.929688 1516.949219 C 1430.085938 1522.277344 1434.785156 1523.394531 1437.988281 1523.394531 C 1439.828125 1523.394531 1441.667969 1523.597656 1443.546875 1523.796875 C 1444.238281 1523.867188 1444.949219 1523.945312 1445.6875 1524.011719 C 1440.023438 1526.160156 1435.90625 1528.984375 1433.671875 1532.898438 L 1430.710938 1538.148438 C 1425.386719 1547.65625 1419.878906 1557.492188 1413.898438 1562.273438 L 1412.644531 1563.273438 C 1404.410156 1569.804688 1391.96875 1579.675781 1386.734375 1602.375 C 1381.128906 1626.652344 1393.347656 1678.921875 1424.808594 1686.613281 C 1445.304688 1691.628906 1470.433594 1689.449219 1488.789062 1687.847656 C 1495.007812 1687.308594 1500.371094 1686.84375 1504.058594 1686.808594 C 1511.398438 1686.804688 1515.027344 1690.578125 1516.941406 1711.75 C 1517.949219 1722.804688 1522.5625 1729.714844 1526.628906 1735.808594 C 1530.089844 1740.984375 1532.820312 1745.078125 1533.445312 1751.394531 C 1534.125 1758.144531 1533.566406 1762.777344 1532.859375 1768.644531 C 1531.960938 1776.125 1530.847656 1785.433594 1531.785156 1802.210938 C 1532.164062 1809.042969 1531.996094 1816.480469 1531.820312 1824.359375 C 1531.242188 1850.253906 1530.585938 1879.601562 1552.433594 1888.964844 C 1555.679688 1890.355469 1558.449219 1891.785156 1560.917969 1893.058594 C 1567.214844 1896.300781 1572.304688 1898.347656 1577.300781 1898.347656 C 1588.183594 1898.34375 1598.609375 1888.632812 1620.027344 1860.414062 C 1658.261719 1810.035156 1666.109375 1785.597656 1672.402344 1758.886719 C 1678.878906 1731.378906 1698.667969 1706.617188 1714.308594 1695.25 C 1729.847656 1683.957031 1740.929688 1666.234375 1738.03125 1657.324219 C 1736.875 1653.773438 1733.746094 1651.476562 1730.0625 1651.476562 C 1729.324219 1651.476562 1727.820312 1651.621094 1725.738281 1651.871094 C 1714.785156 1653.160156 1681.457031 1657.101562 1671.957031 1636.398438 C 1671.242188 1634.84375 1670.507812 1633.285156 1669.757812 1631.726562 C 1676.566406 1641.148438 1683.628906 1647.164062 1691.429688 1646.074219 Z M 1691.429688 1646.074219 " fill-opacity="1" fill-rule="nonzero"/></g><path fill="#029b24" d="M 1311.210938 1719.371094 C 1293.289062 1714.105469 1274.925781 1700.765625 1258.726562 1688.992188 C 1250.890625 1683.300781 1243.492188 1677.925781 1236.859375 1674.011719 C 1218.253906 1663.03125 1188.371094 1657.824219 1181.355469 1656.714844 C 1176.292969 1653.523438 1171.527344 1649.996094 1166.902344 1646.574219 C 1156.515625 1638.890625 1148.304688 1632.820312 1140.132812 1632.820312 C 1136.257812 1632.820312 1130.792969 1634.230469 1126.800781 1640.953125 C 1119.070312 1653.941406 1110.875 1666.804688 1095.605469 1681.417969 C 1092.230469 1684.65625 1087.421875 1687.789062 1082.769531 1690.820312 C 1072.277344 1697.667969 1061.417969 1704.75 1060.203125 1716.445312 C 1059.398438 1724.21875 1063.164062 1732.160156 1071.730469 1740.726562 C 1081.183594 1750.167969 1092.332031 1756.152344 1103.105469 1761.945312 C 1124.167969 1773.257812 1142.355469 1783.035156 1147.371094 1816.054688 C 1156.703125 1877.664062 1196.363281 1936.746094 1212.984375 1959.285156 C 1225.136719 1975.773438 1238.117188 1984.859375 1249.515625 1984.859375 C 1254.34375 1984.859375 1258.726562 1983.164062 1261.855469 1980.089844 C 1264.9375 1977.058594 1266.636719 1972.910156 1266.636719 1968.402344 C 1266.636719 1965.078125 1266.953125 1961.605469 1267.28125 1957.921875 C 1268.066406 1949.191406 1268.957031 1939.296875 1266.527344 1925.945312 C 1263.257812 1907.917969 1263.414062 1899.324219 1267.140625 1893.101562 C 1267.785156 1892.019531 1269.242188 1891.597656 1272.179688 1890.953125 C 1275.464844 1890.234375 1279.960938 1889.25 1282.472656 1884.960938 C 1284.210938 1881.992188 1284.40625 1878.421875 1283.066406 1874.035156 C 1282.265625 1871.40625 1281.265625 1868.929688 1280.285156 1866.535156 C 1277.097656 1858.707031 1275.5 1854.777344 1281.707031 1847.539062 C 1293.472656 1833.839844 1312.519531 1802.835938 1316.0625 1779.792969 C 1316.941406 1774.078125 1319.804688 1767.769531 1322.574219 1761.664062 C 1327.203125 1751.457031 1331.988281 1740.898438 1327.71875 1731.585938 C 1325.09375 1725.859375 1319.695312 1721.867188 1311.210938 1719.371094 Z M 1311.210938 1719.371094 " fill-opacity="1" fill-rule="nonzero"/><path fill="#029b24" d="M 1275.679688 1274.039062 C 1273.886719 1270.828125 1269.898438 1269.582031 1266.59375 1271.230469 C 1265.902344 1271.578125 1249.597656 1279.925781 1249.597656 1297.171875 C 1249.597656 1300.625 1244.609375 1306.855469 1240.960938 1311.40625 C 1234.5625 1319.402344 1224.882812 1331.488281 1235.570312 1340.386719 C 1238.183594 1342.5625 1241.769531 1343.714844 1245.9375 1343.714844 C 1256.101562 1343.714844 1270.503906 1336.722656 1278.359375 1323.363281 C 1284.167969 1313.5 1288.410156 1296.933594 1275.679688 1274.039062 Z M 1275.679688 1274.039062 " fill-opacity="1" fill-rule="nonzero"/><path fill="#029b24" d="M 1406.410156 1394.03125 C 1433.367188 1380.554688 1430.140625 1338.066406 1429.984375 1336.265625 C 1429.816406 1334.261719 1428.78125 1332.429688 1427.144531 1331.253906 C 1425.507812 1330.082031 1423.4375 1329.691406 1421.484375 1330.164062 C 1415.460938 1331.652344 1385.015625 1339.855469 1377.375 1355.113281 C 1372.917969 1364.035156 1371.847656 1379 1377.785156 1388.59375 C 1381.324219 1394.324219 1386.910156 1397.480469 1393.507812 1397.480469 C 1397.488281 1397.480469 1401.828125 1396.320312 1406.410156 1394.03125 Z M 1406.410156 1394.03125 " fill-opacity="1" fill-rule="nonzero"/><g clip-path="url(#34a96adcd8)"><g transform="matrix(1, 0, 0, 1, 669, 956)"><g clip-path="url(#daa59e75ca)"><g clip-path="url(#fd75e20408)"><path fill="#029b24" d="M 187.71875 0.449219 C 290.917969 0.449219 374.582031 63.269531 374.582031 140.769531 C 374.582031 178.347656 354.871094 212.449219 322.835938 237.640625 C 323.742188 243.277344 325.023438 248.851562 327.089844 254.277344 C 333.757812 271.71875 346.597656 286.152344 360.773438 298.304688 C 338.363281 299.507812 315.554688 298.792969 294.0625 292.339844 C 279.96875 288.101562 266.472656 281.136719 255.378906 271.566406 C 234.390625 277.691406 211.589844 281.089844 187.71875 281.089844 C 84.519531 281.089844 0.855469 218.265625 0.855469 140.769531 C 0.855469 63.269531 84.519531 0.449219 187.71875 0.449219 " fill-opacity="1" fill-rule="nonzero"/></g></g></g></g></g></g></svg>